<svg viewBox="0 0 100 100" xmlns="http://www.w3.org/2000/svg">
  <!-- Background gradient -->
  <defs>
    <linearGradient id="bgGradient" x1="0%" y1="0%" x2="100%" y2="100%">
      <stop offset="0%" style="stop-color:#1a1a1a;stop-opacity:1" />
      <stop offset="100%" style="stop-color:#2d2d2d;stop-opacity:1" />
    </linearGradient>
    <linearGradient id="filmGradient" x1="0%" y1="0%" x2="100%" y2="100%">
      <stop offset="0%" style="stop-color:#f59e0b;stop-opacity:1" />
      <stop offset="50%" style="stop-color:#eab308;stop-opacity:1" />
      <stop offset="100%" style="stop-color:#dc2626;stop-opacity:1" />
    </linearGradient>
    <linearGradient id="starGradient" x1="0%" y1="0%" x2="100%" y2="100%">
      <stop offset="0%" style="stop-color:#fbbf24;stop-opacity:1" />
      <stop offset="100%" style="stop-color:#f59e0b;stop-opacity:1" />
    </linearGradient>
    <filter id="glow">
      <feGaussianBlur stdDeviation="3" result="coloredBlur"/>
      <feMerge>
        <feMergeNode in="coloredBlur"/>
        <feMergeNode in="SourceGraphic"/>
      </feMerge>
    </filter>
  </defs>

  <!-- Main circle background -->
  <circle cx="50" cy="50" r="48" fill="url(#bgGradient)" stroke="#4a4a4a" stroke-width="2"/>

  <!-- Film strip -->
  <rect x="15" y="35" width="70" height="30" rx="3" fill="url(#filmGradient)" filter="url(#glow)"/>

  <!-- Film holes -->
  <rect x="18" y="40" width="4" height="4" rx="1" fill="#1a1a1a"/>
  <rect x="18" y="48" width="4" height="4" rx="1" fill="#1a1a1a"/>
  <rect x="18" y="56" width="4" height="4" rx="1" fill="#1a1a1a"/>

  <rect x="78" y="40" width="4" height="4" rx="1" fill="#1a1a1a"/>
  <rect x="78" y="48" width="4" height="4" rx="1" fill="#1a1a1a"/>
  <rect x="78" y="56" width="4" height="4" rx="1" fill="#1a1a1a"/>

  <!-- Center film frame -->
  <rect x="30" y="40" width="40" height="20" rx="2" fill="#2d2d2d" stroke="#4a4a4a"/>

  <!-- Star rating -->
  <g transform="translate(50,50)">
    <!-- Main star -->
    <path d="M0,-8 L2.4,-2.4 L8,-2.4 L3.2,1.2 L4.8,7.2 L0,4 L-4.8,7.2 L-3.2,1.2 L-8,-2.4 L-2.4,-2.4 Z"
          fill="url(#starGradient)"
          filter="url(#glow)"/>

    <!-- Smaller stars -->
    <g transform="translate(-15,0) scale(0.6)">
      <path d="M0,-8 L2.4,-2.4 L8,-2.4 L3.2,1.2 L4.8,7.2 L0,4 L-4.8,7.2 L-3.2,1.2 L-8,-2.4 L-2.4,-2.4 Z"
            fill="url(#starGradient)"
            opacity="0.8"/>
    </g>

    <g transform="translate(15,0) scale(0.6)">
      <path d="M0,-8 L2.4,-2.4 L8,-2.4 L3.2,1.2 L4.8,7.2 L0,4 L-4.8,7.2 L-3.2,1.2 L-8,-2.4 L-2.4,-2.4 Z"
            fill="url(#starGradient)"
            opacity="0.8"/>
    </g>
  </g>

  <!-- Sparkle effects -->
  <circle cx="25" cy="25" r="1.5" fill="#fbbf24" opacity="0.8">
    <animate attributeName="opacity" values="0.8;0.3;0.8" dur="2s" repeatCount="indefinite"/>
  </circle>

  <circle cx="75" cy="25" r="1" fill="#f59e0b" opacity="0.6">
    <animate attributeName="opacity" values="0.6;0.2;0.6" dur="3s" repeatCount="indefinite"/>
  </circle>

  <circle cx="25" cy="75" r="1" fill="#eab308" opacity="0.7">
    <animate attributeName="opacity" values="0.7;0.3;0.7" dur="2.5s" repeatCount="indefinite"/>
  </circle>

  <circle cx="75" cy="75" r="1.5" fill="#dc2626" opacity="0.5">
    <animate attributeName="opacity" values="0.5;0.1;0.5" dur="2.8s" repeatCount="indefinite"/>
  </circle>
</svg>
